<?xml version="1.0" encoding="UTF-8"?>
<!DOCTYPE svg PUBLIC "-//W3C//DTD SVG 1.1//EN" "http://www.w3.org/Graphics/SVG/1.1/DTD/svg11.dtd">
<svg xmlns="http://www.w3.org/2000/svg" version="1.1" width="1186px" height="192px" style="shape-rendering:geometricPrecision; text-rendering:geometricPrecision; image-rendering:optimizeQuality; fill-rule:evenodd; clip-rule:evenodd" xmlns:xlink="http://www.w3.org/1999/xlink">
<g><path style="opacity:1" fill="#f9f9f9" d="M -0.5,-0.5 C 394.833,-0.5 790.167,-0.5 1185.5,-0.5C 1185.5,63.5 1185.5,127.5 1185.5,191.5C 790.167,191.5 394.833,191.5 -0.5,191.5C -0.5,127.5 -0.5,63.5 -0.5,-0.5 Z"/></g>
<g><path style="opacity:1" fill="#101010" d="M 864.5,17.5 C 867.167,17.5 869.833,17.5 872.5,17.5C 872.5,18.8333 872.5,20.1667 872.5,21.5C 866.563,18.3861 863.563,20.3861 863.5,27.5C 865.288,27.2148 866.955,27.5481 868.5,28.5C 866.5,29.1667 864.5,29.8333 862.5,30.5C 860.731,37.8427 858.898,45.176 857,52.5C 855.395,55.8895 852.895,56.8895 849.5,55.5C 850.76,54.6184 851.926,53.6184 853,52.5C 855.263,44.9157 857.096,37.249 858.5,29.5C 857.325,29.719 856.325,29.3857 855.5,28.5C 856.628,27.7379 857.795,27.0712 859,26.5C 859.837,22.8426 861.67,19.8426 864.5,17.5 Z"/></g>
<g><path style="opacity:1" fill="#151515" d="M 1106.5,17.5 C 1107.98,17.238 1109.31,17.5713 1110.5,18.5C 1103.79,22.5773 1100.79,28.5773 1101.5,36.5C 1100.88,44.6734 1103.88,51.0068 1110.5,55.5C 1103.61,55.4718 1099.44,51.8051 1098,44.5C 1095.04,33.4362 1097.87,24.4362 1106.5,17.5 Z"/></g>
<g><path style="opacity:1" fill="#0f0f0f" d="M 1136.5,17.5 C 1143.06,18.9173 1147.23,22.9173 1149,29.5C 1150.31,36.8714 1149.31,43.8714 1146,50.5C 1143.89,53.284 1141.22,55.284 1138,56.5C 1136.74,56.1501 1136.41,55.4835 1137,54.5C 1141.37,52.1161 1144.03,48.4495 1145,43.5C 1146.08,36.9456 1145.41,30.6123 1143,24.5C 1140.53,22.2419 1138.37,19.9086 1136.5,17.5 Z"/></g>
<g><path style="opacity:1" fill="#131313" d="M 224.5,18.5 C 227.518,18.3354 230.518,18.502 233.5,19C 237.828,21.8897 238.661,25.7231 236,30.5C 232.5,34.6667 229,38.8333 225.5,43C 228.5,43.6667 231.5,43.6667 234.5,43C 235.047,42.0754 235.713,41.2421 236.5,40.5C 237.474,42.7427 237.808,45.076 237.5,47.5C 231.463,47.8293 225.463,47.4959 219.5,46.5C 223.178,40.4778 227.345,34.8111 232,29.5C 232.667,27.1667 232.667,24.8333 232,22.5C 231.196,21.1955 230.029,20.5288 228.5,20.5C 226.041,22.3032 223.374,23.6365 220.5,24.5C 219.933,21.0886 221.266,19.0886 224.5,18.5 Z"/></g>
<g><path style="opacity:1" fill="#141414" d="M 246.5,18.5 C 253.2,18.17 259.866,18.5033 266.5,19.5C 265.652,21.4086 265.318,23.4086 265.5,25.5C 264.5,25.5 263.5,25.5 262.5,25.5C 262.67,24.1779 262.337,23.0113 261.5,22C 258.518,21.502 255.518,21.3354 252.5,21.5C 252.167,24.8333 251.833,28.1667 251.5,31.5C 254.837,31.3227 257.837,30.3227 260.5,28.5C 260.534,31.1985 259.867,33.6985 258.5,36C 256.95,34.9915 255.117,34.1581 253,33.5C 252.167,33.8333 251.333,34.1667 250.5,34.5C 249.51,38.1051 248.844,41.7717 248.5,45.5C 250.857,45.6633 253.19,45.4966 255.5,45C 257.017,43.3149 258.684,41.8149 260.5,40.5C 261.706,42.4841 261.706,44.4841 260.5,46.5C 254.167,47.8333 247.833,47.8333 241.5,46.5C 242.522,45.646 243.355,44.646 244,43.5C 245.607,36.8552 247.107,30.1886 248.5,23.5C 248.014,21.6958 247.347,20.0291 246.5,18.5 Z"/></g>
<g><path style="opacity:1" fill="#121212" d="M 842.5,19.5 C 844.199,19.3398 845.866,19.5065 847.5,20C 846.663,21.0113 846.33,22.1779 846.5,23.5C 845.167,23.5 843.833,23.5 842.5,23.5C 842.5,22.1667 842.5,20.8333 842.5,19.5 Z"/></g>
<g><path style="opacity:1" fill="#141414" d="M 889.5,18.5 C 896.2,18.17 902.866,18.5033 909.5,19.5C 908.652,21.4086 908.318,23.4086 908.5,25.5C 907.5,25.5 906.5,25.5 905.5,25.5C 905.67,24.1779 905.337,23.0113 904.5,22C 901.518,21.502 898.518,21.3354 895.5,21.5C 895.167,24.8333 894.833,28.1667 894.5,31.5C 897.837,31.3227 900.837,30.3227 903.5,28.5C 903.534,31.1985 902.867,33.6985 901.5,36C 899.95,34.9915 898.117,34.1581 896,33.5C 895.167,33.8333 894.333,34.1667 893.5,34.5C 892.51,38.1051 891.844,41.7717 891.5,45.5C 893.857,45.6633 896.19,45.4966 898.5,45C 900.017,43.3149 901.684,41.8149 903.5,40.5C 904.706,42.4841 904.706,44.4841 903.5,46.5C 897.167,47.8333 890.833,47.8333 884.5,46.5C 885.522,45.646 886.355,44.646 887,43.5C 888.607,36.8552 890.107,30.1886 891.5,23.5C 891.014,21.6958 890.347,20.0291 889.5,18.5 Z"/></g>
<g><path style="opacity:1" fill="#141414" d="M 988.5,18.5 C 995.2,18.17 1001.87,18.5033 1008.5,19.5C 1007.65,21.4086 1007.32,23.4086 1007.5,25.5C 1006.5,25.5 1005.5,25.5 1004.5,25.5C 1004.67,24.1779 1004.34,23.0113 1003.5,22C 1000.52,21.502 997.518,21.3354 994.5,21.5C 994.167,24.8333 993.833,28.1667 993.5,31.5C 996.837,31.3227 999.837,30.3227 1002.5,28.5C 1002.53,31.1985 1001.87,33.6985 1000.5,36C 998.95,34.9915 997.117,34.1581 995,33.5C 994.167,33.8333 993.333,34.1667 992.5,34.5C 991.51,38.1051 990.844,41.7717 990.5,45.5C 992.857,45.6633 995.19,45.4966 997.5,45C 999.017,43.3149 1000.68,41.8149 1002.5,40.5C 1003.71,42.4841 1003.71,44.4841 1002.5,46.5C 996.167,47.8333 989.833,47.8333 983.5,46.5C 984.522,45.646 985.355,44.646 986,43.5C 987.607,36.8552 989.107,30.1886 990.5,23.5C 990.014,21.6958 989.347,20.0291 988.5,18.5 Z"/></g>
<g><path style="opacity:1" fill="#101010" d="M 204.5,21.5 C 205.497,21.4701 206.164,21.9701 206.5,23C 201.077,26.7744 197.577,31.9411 196,38.5C 195.173,42.4592 194.673,46.4592 194.5,50.5C 195.302,60.1871 196.302,69.8538 197.5,79.5C 197.083,85.0029 195.916,90.3362 194,95.5C 193.052,97.5701 191.552,99.0701 189.5,100C 193.661,103.154 196.161,107.321 197,112.5C 196.836,123.499 196.336,134.499 195.5,145.5C 194.63,154.615 196.13,163.281 200,171.5C 201.571,173.923 203.737,175.256 206.5,175.5C 206.5,176.5 206.5,177.5 206.5,178.5C 199.945,176.448 195.445,172.114 193,165.5C 191.112,158.97 190.279,152.304 190.5,145.5C 191.702,133.518 192.202,121.518 192,109.5C 191.474,105.476 189.307,102.809 185.5,101.5C 184.614,100.675 184.281,99.675 184.5,98.5C 188.817,97.6801 191.317,95.0134 192,90.5C 192.124,78.3185 191.624,66.1519 190.5,54C 189.57,44.8882 191.403,36.3882 196,28.5C 198.441,25.5464 201.275,23.2131 204.5,21.5 Z"/></g>
<g><path style="opacity:1" fill="#111111" d="M 964.5,22.5 C 965.5,22.5 966.5,22.5 967.5,22.5C 967.67,23.8221 967.337,24.9887 966.5,26C 959.715,28.8138 953.048,31.8138 946.5,35C 953.015,38.4234 959.681,41.59 966.5,44.5C 967.614,45.723 967.781,47.0563 967,48.5C 958.774,44.1354 950.274,40.4687 941.5,37.5C 941.286,35.8561 941.62,34.3561 942.5,33C 950.046,29.7251 957.379,26.2251 964.5,22.5 Z"/></g>
<g><path style="opacity:1" fill="#141414" d="M 838.5,28.5 C 840.607,27.5318 842.941,27.1984 845.5,27.5C 844.234,32.2575 843.234,37.0908 842.5,42C 842.833,42.8333 843.167,43.6667 843.5,44.5C 848.335,42.1944 848.669,43.0278 844.5,47C 842.559,47.7429 840.726,47.5762 839,46.5C 838.29,41.3908 838.79,36.3908 840.5,31.5C 840.547,29.9623 839.88,28.9623 838.5,28.5 Z"/></g>
<g><path style="opacity:1" fill="#181818" d="M 1032.5,26.5 C 1035.88,26.4595 1039.21,26.7929 1042.5,27.5C 1042.5,29.1667 1042.5,30.8333 1042.5,32.5C 1039.76,32.2934 1037.43,31.2934 1035.5,29.5C 1031.99,30.6688 1030.32,33.1688 1030.5,37C 1030.98,44.3443 1034.32,46.1776 1040.5,42.5C 1041.31,42.8076 1041.97,43.3076 1042.5,44C 1039.13,47.2612 1035.13,48.2612 1030.5,47C 1025.76,41.6223 1025.26,35.789 1029,29.5C 1030.52,28.8366 1031.69,27.8366 1032.5,26.5 Z"/></g>
<g><path style="opacity:1" fill="#161616" d="M 1051.5,26.5 C 1062.37,26.5232 1066.2,31.8565 1063,42.5C 1060.1,47.1549 1055.94,48.6549 1050.5,47C 1048.45,46.0701 1046.95,44.5701 1046,42.5C 1044.02,35.6603 1045.85,30.3269 1051.5,26.5 Z"/></g>
<g><path style="opacity:1" fill="#161616" d="M 1073.5,26.5 C 1076.25,26.2739 1078.92,26.6072 1081.5,27.5C 1082.45,29.0453 1082.79,30.712 1082.5,32.5C 1080.34,31.5225 1078.17,30.5225 1076,29.5C 1074.03,29.2814 1072.86,30.1147 1072.5,32C 1075.38,34.5251 1078.54,36.6918 1082,38.5C 1082.67,40.8333 1082.67,43.1667 1082,45.5C 1081.25,46.1258 1080.42,46.6258 1079.5,47C 1075.85,47.4986 1072.18,47.6653 1068.5,47.5C 1068.5,45.8333 1068.5,44.1667 1068.5,42.5C 1070.36,42.4609 1071.69,43.2942 1072.5,45C 1077.1,46.5833 1078.93,45.0833 1078,40.5C 1074.66,38.9961 1071.66,36.9961 1069,34.5C 1068.17,30.5002 1069.67,27.8335 1073.5,26.5 Z"/></g>
<g><path style="opacity:1" fill="#141414" d="M 1121.5,26.5 C 1125.18,26.7244 1128.85,27.0578 1132.5,27.5C 1131.5,32.1539 1130.5,36.8206 1129.5,41.5C 1129.83,42.5 1130.17,43.5 1130.5,44.5C 1131.5,43.8333 1132.5,43.1667 1133.5,42.5C 1134.83,43.5 1134.83,44.5 1133.5,45.5C 1129.75,48.598 1126.92,47.9313 1125,43.5C 1122.79,47.1252 1119.63,48.2919 1115.5,47C 1111.55,38.4125 1113.55,31.5792 1121.5,26.5 Z"/></g>
<g><path style="opacity:1" fill="#f4f4f4" d="M 1052.5,29.5 C 1055.55,28.8554 1057.71,29.8554 1059,32.5C 1059.67,35.5 1059.67,38.5 1059,41.5C 1056.67,46.2614 1054,46.5947 1051,42.5C 1049.98,37.8711 1050.48,33.5377 1052.5,29.5 Z"/></g>
<g><path style="opacity:1" fill="#efefef" d="M 1122.5,29.5 C 1124.17,29.5 1125.83,29.5 1127.5,29.5C 1128.1,36.2072 1125.6,41.2072 1120,44.5C 1119.23,44.3552 1118.56,44.0219 1118,43.5C 1116.95,37.9544 1118.45,33.2877 1122.5,29.5 Z"/></g>
<g><path style="opacity:1" fill="#181818" d="M 912.5,37.5 C 915.93,37.1065 919.096,37.7732 922,39.5C 922.667,41.1667 922.667,42.8333 922,44.5C 919.147,47.0518 916.647,49.8851 914.5,53C 916.899,53.711 919.232,53.5443 921.5,52.5C 922.429,53.6888 922.762,55.0222 922.5,56.5C 918.116,56.8256 913.783,56.4922 909.5,55.5C 911.771,51.7261 914.604,48.3928 918,45.5C 918.495,43.5273 918.662,41.5273 918.5,39.5C 915.692,39.6933 913.025,40.36 910.5,41.5C 910.527,39.8007 911.194,38.4674 912.5,37.5 Z"/></g>
<g><path style="opacity:1" fill="#121212" d="M 1014.5,37.5 C 1016.45,42.7351 1017.12,48.4018 1016.5,54.5C 1018.29,54.2148 1019.95,54.5481 1021.5,55.5C 1017.5,56.8333 1013.5,56.8333 1009.5,55.5C 1010.69,54.5713 1012.02,54.238 1013.5,54.5C 1013.83,50.1161 1013.49,45.7828 1012.5,41.5C 1011.23,42.4279 1009.9,42.5946 1008.5,42C 1010.39,40.2359 1012.39,38.7359 1014.5,37.5 Z"/></g>
<g><path style="opacity:1" fill="#161616" d="M 269.5,37.5 C 276.981,35.4945 280.147,38.1611 279,45.5C 276.5,48 274,50.5 271.5,53C 274.453,53.8925 277.119,53.3925 279.5,51.5C 280.452,53.0453 280.785,54.712 280.5,56.5C 276.116,56.8256 271.783,56.4922 267.5,55.5C 270.925,51.4176 273.925,47.0842 276.5,42.5C 276.5,40.5 275.5,39.5 273.5,39.5C 271.675,40.6511 269.675,41.3178 267.5,41.5C 267.527,39.8007 268.194,38.4674 269.5,37.5 Z"/></g>
<g><path style="opacity:1" fill="#151515" d="M 287.5,42.5 C 288.833,42.5 290.167,42.5 291.5,42.5C 292.162,47.3566 290.329,51.0232 286,53.5C 285.308,52.9747 284.808,52.3081 284.5,51.5C 287.077,49.0798 288.077,46.0798 287.5,42.5 Z"/></g>
<g><path style="opacity:1" fill="#232323" d="M 363.5,69.5 C 365.759,71.1161 367.759,72.9494 369.5,75C 367.688,76.8116 365.855,78.6449 364,80.5C 362.176,79.2513 362.343,78.0847 364.5,77C 351.504,76.5001 338.504,76.3334 325.5,76.5C 325.5,75.5 325.5,74.5 325.5,73.5C 338.504,73.6666 351.504,73.4999 364.5,73C 362.627,72.0471 362.294,70.8804 363.5,69.5 Z"/></g>
<g><path style="opacity:1" fill="#1d1d1d" d="M 450.5,76.5 C 449.1,75.8999 448.1,74.8999 447.5,73.5C 456.173,73.6664 464.84,73.4998 473.5,73C 471.343,71.9153 471.176,70.7487 473,69.5C 475.035,71.2404 476.869,73.0738 478.5,75C 476.688,76.8116 474.855,78.6449 473,80.5C 471.176,79.2513 471.343,78.0847 473.5,77C 465.841,76.5003 458.174,76.3336 450.5,76.5 Z"/></g>
<g><path style="opacity:1" fill="#1c1c1c" d="M 560.5,76.5 C 559.1,75.8999 558.1,74.8999 557.5,73.5C 563.842,73.6662 570.175,73.4995 576.5,73C 574.343,71.9153 574.176,70.7487 576,69.5C 578.035,71.2404 579.869,73.0738 581.5,75C 579.688,76.8116 577.855,78.6449 576,80.5C 574.176,79.2513 574.343,78.0847 576.5,77C 571.177,76.5006 565.844,76.334 560.5,76.5 Z"/></g>
<g><path style="opacity:1" fill="#191919" d="M 316.5,74.5 C 317.833,74.5 319.167,74.5 320.5,74.5C 320.5,91.5 320.5,108.5 320.5,125.5C 319.167,125.5 317.833,125.5 316.5,125.5C 316.5,108.5 316.5,91.5 316.5,74.5 Z"/></g>
<g><path style="opacity:1" fill="#131313" d="M 446.5,73.5 C 442.971,75.4228 438.971,76.0894 434.5,75.5C 438.029,73.5772 442.029,72.9106 446.5,73.5 Z"/></g>
<g><path style="opacity:1" fill="#151515" d="M 556.5,73.5 C 550.588,75.4563 544.255,76.1229 537.5,75.5C 543.412,73.5437 549.745,72.8771 556.5,73.5 Z"/></g>
<g><path style="opacity:1" fill="#191919" d="M 603.5,74.5 C 604.833,74.5 606.167,74.5 607.5,74.5C 607.5,91.5 607.5,108.5 607.5,125.5C 606.167,125.5 604.833,125.5 603.5,125.5C 603.5,108.5 603.5,91.5 603.5,74.5 Z"/></g>
<g><path style="opacity:1" fill="#5e5e5e" d="M 446.5,73.5 C 446.833,73.5 447.167,73.5 447.5,73.5C 448.1,74.8999 449.1,75.8999 450.5,76.5C 444.974,76.8214 439.64,76.4881 434.5,75.5C 438.971,76.0894 442.971,75.4228 446.5,73.5 Z"/></g>
<g><path style="opacity:1" fill="#5d5d5d" d="M 556.5,73.5 C 556.833,73.5 557.167,73.5 557.5,73.5C 558.1,74.8999 559.1,75.8999 560.5,76.5C 552.648,76.8254 544.982,76.492 537.5,75.5C 544.255,76.1229 550.588,75.4563 556.5,73.5 Z"/></g>
<g><path style="opacity:1" fill="#151515" d="M 283.5,82.5 C 284.978,82.238 286.311,82.5713 287.5,83.5C 280.795,87.5773 277.795,93.5773 278.5,101.5C 277.879,109.673 280.879,116.007 287.5,120.5C 280.61,120.472 276.444,116.805 275,109.5C 272.041,98.4362 274.875,89.4362 283.5,82.5 Z"/></g>
<g><path style="opacity:1" fill="#151515" d="M 430.5,82.5 C 431.978,82.238 433.311,82.5713 434.5,83.5C 427.795,87.5773 424.795,93.5773 425.5,101.5C 424.879,109.673 427.879,116.007 434.5,120.5C 427.61,120.472 423.444,116.805 422,109.5C 419.041,98.4362 421.875,89.4362 430.5,82.5 Z"/></g>
<g><path style="opacity:1" fill="#0f0f0f" d="M 582.5,82.5 C 589.061,83.9173 593.228,87.9173 595,94.5C 596.31,101.871 595.31,108.871 592,115.5C 589.888,118.284 587.221,120.284 584,121.5C 582.743,121.15 582.409,120.483 583,119.5C 587.365,117.116 590.032,113.449 591,108.5C 592.081,101.946 591.414,95.6123 589,89.5C 586.534,87.2419 584.367,84.9086 582.5,82.5 Z"/></g>
<g><path style="opacity:1" fill="#0f0f0f" d="M 613.5,82.5 C 620.061,83.9173 624.228,87.9173 626,94.5C 627.31,101.871 626.31,108.871 623,115.5C 620.888,118.284 618.221,120.284 615,121.5C 613.743,121.15 613.409,120.483 614,119.5C 618.365,117.116 621.032,113.449 622,108.5C 623.081,101.946 622.414,95.6123 620,89.5C 617.534,87.2419 615.367,84.9086 613.5,82.5 Z"/></g>
<g><path style="opacity:1" fill="#131313" d="M 294.5,83.5 C 297.518,83.3354 300.518,83.502 303.5,84C 307.828,86.8897 308.661,90.7231 306,95.5C 302.5,99.6667 299,103.833 295.5,108C 298.5,108.667 301.5,108.667 304.5,108C 305.047,107.075 305.713,106.242 306.5,105.5C 307.474,107.743 307.808,110.076 307.5,112.5C 301.463,112.829 295.463,112.496 289.5,111.5C 293.178,105.478 297.345,99.8111 302,94.5C 302.667,92.1667 302.667,89.8333 302,87.5C 301.196,86.1955 300.029,85.5288 298.5,85.5C 296.041,87.3032 293.374,88.6365 290.5,89.5C 289.933,86.0886 291.266,84.0886 294.5,83.5 Z"/></g>
<g><path style="opacity:1" fill="#181818" d="M 23.5,83.5 C 31.1667,83.5 38.8333,83.5 46.5,83.5C 46.2866,86.475 45.2866,89.1416 43.5,91.5C 43.1221,87.1498 40.7888,85.4832 36.5,86.5C 35.0908,93.306 33.7575,100.139 32.5,107C 32.7483,108.716 33.415,110.216 34.5,111.5C 31.2156,112.657 27.8823,112.824 24.5,112C 26.9378,109.705 28.4378,106.872 29,103.5C 30.274,97.8476 31.4406,92.181 32.5,86.5C 28.855,85.6797 26.5217,87.013 25.5,90.5C 24.675,91.3857 23.675,91.719 22.5,91.5C 23.0916,88.8728 23.4249,86.2062 23.5,83.5 Z"/></g>
<g><path style="opacity:1" fill="#0f0f0f" d="M 52.5,83.5 C 55.5719,83.1826 58.5719,83.5159 61.5,84.5C 60.4783,85.354 59.6449,86.354 59,87.5C 57.3084,94.1249 55.8084,100.792 54.5,107.5C 54.7896,109.044 55.4563,110.377 56.5,111.5C 53.5,112.833 50.5,112.833 47.5,111.5C 48.5217,110.646 49.3551,109.646 50,108.5C 51.6073,101.855 53.1073,95.1886 54.5,88.5C 54.0135,86.6958 53.3468,85.0291 52.5,83.5 Z"/></g>
<g><path style="opacity:1" fill="#161616" d="M 330.5,83.5 C 337.2,83.17 343.866,83.5033 350.5,84.5C 349.652,86.4086 349.318,88.4086 349.5,90.5C 348.5,90.5 347.5,90.5 346.5,90.5C 346.67,89.1779 346.337,88.0113 345.5,87C 342.518,86.502 339.518,86.3354 336.5,86.5C 336.167,89.8333 335.833,93.1667 335.5,96.5C 338.837,96.3227 341.837,95.3227 344.5,93.5C 344.534,96.1985 343.867,98.6985 342.5,101C 340.95,99.9915 339.117,99.1581 337,98.5C 336.167,98.8333 335.333,99.1667 334.5,99.5C 333.51,103.105 332.844,106.772 332.5,110.5C 334.857,110.663 337.19,110.497 339.5,110C 341.355,108.145 343.188,106.312 345,104.5C 345.5,104.833 346,105.167 346.5,105.5C 345.833,107.5 345.167,109.5 344.5,111.5C 338.167,112.833 331.833,112.833 325.5,111.5C 326.522,110.646 327.355,109.646 328,108.5C 329.607,101.855 331.107,95.1886 332.5,88.5C 332.014,86.6958 331.347,85.0291 330.5,83.5 Z"/></g>
<g><path style="opacity:1" fill="#161616" d="M 441.5,83.5 C 448.2,83.17 454.866,83.5033 461.5,84.5C 460.652,86.4086 460.318,88.4086 460.5,90.5C 459.5,90.5 458.5,90.5 457.5,90.5C 457.67,89.1779 457.337,88.0113 456.5,87C 453.518,86.502 450.518,86.3354 447.5,86.5C 447.167,89.8333 446.833,93.1667 446.5,96.5C 449.837,96.3227 452.837,95.3227 455.5,93.5C 455.534,96.1985 454.867,98.6985 453.5,101C 451.95,99.9915 450.117,99.1581 448,98.5C 447.167,98.8333 446.333,99.1667 445.5,99.5C 444.51,103.105 443.844,106.772 443.5,110.5C 445.857,110.663 448.19,110.497 450.5,110C 452.355,108.145 454.188,106.312 456,104.5C 456.5,104.833 457,105.167 457.5,105.5C 456.833,107.5 456.167,109.5 455.5,111.5C 449.167,112.833 442.833,112.833 436.5,111.5C 437.522,110.646 438.355,109.646 439,108.5C 440.607,101.855 442.107,95.1886 443.5,88.5C 443.014,86.6958 442.347,85.0291 441.5,83.5 Z"/></g>
<g><path style="opacity:1" fill="#161616" d="M 543.5,83.5 C 550.2,83.17 556.866,83.5033 563.5,84.5C 562.652,86.4086 562.318,88.4086 562.5,90.5C 561.5,90.5 560.5,90.5 559.5,90.5C 559.67,89.1779 559.337,88.0113 558.5,87C 555.518,86.502 552.518,86.3354 549.5,86.5C 549.167,89.8333 548.833,93.1667 548.5,96.5C 551.837,96.3227 554.837,95.3227 557.5,93.5C 557.534,96.1985 556.867,98.6985 555.5,101C 553.95,99.9915 552.117,99.1581 550,98.5C 549.167,98.8333 548.333,99.1667 547.5,99.5C 546.51,103.105 545.844,106.772 545.5,110.5C 547.857,110.663 550.19,110.497 552.5,110C 554.355,108.145 556.188,106.312 558,104.5C 558.5,104.833 559,105.167 559.5,105.5C 558.833,107.5 558.167,109.5 557.5,111.5C 551.167,112.833 544.833,112.833 538.5,111.5C 539.522,110.646 540.355,109.646 541,108.5C 542.607,101.855 544.107,95.1886 545.5,88.5C 545.014,86.6958 544.347,85.0291 543.5,83.5 Z"/></g>
<g><path style="opacity:1" fill="#121212" d="M 651.5,86.5 C 652.675,86.281 653.675,86.6143 654.5,87.5C 644.588,113.985 635.255,140.652 626.5,167.5C 625.022,167.762 623.689,167.429 622.5,166.5C 632.175,139.805 641.842,113.138 651.5,86.5 Z"/></g>
<g><path style="opacity:1" fill="#171717" d="M 382.5,88.5 C 386.402,90.8926 389.902,93.8926 393,97.5C 396,94.5 399,91.5 402,88.5C 402.925,89.0465 403.758,89.7132 404.5,90.5C 401.683,93.8178 398.683,96.9845 395.5,100C 398.333,102.833 401.167,105.667 404,108.5C 404.301,111.091 403.134,111.925 400.5,111C 398.372,107.87 395.872,105.037 393,102.5C 390.167,105.333 387.333,108.167 384.5,111C 382.333,111.5 381.5,110.667 382,108.5C 384.885,105.952 387.385,103.118 389.5,100C 387.195,96.6936 384.528,93.6936 381.5,91C 381.743,90.0979 382.077,89.2646 382.5,88.5 Z"/></g>
<g><path style="opacity:1" fill="#030303" d="M 142.5,94.5 C 151.167,94.5 159.833,94.5 168.5,94.5C 168.5,95.5 168.5,96.5 168.5,97.5C 159.833,97.5 151.167,97.5 142.5,97.5C 142.5,96.5 142.5,95.5 142.5,94.5 Z"/></g>
<g><path style="opacity:1" fill="#000000" d="M 490.5,98.5 C 499.167,98.5 507.833,98.5 516.5,98.5C 516.5,99.5 516.5,100.5 516.5,101.5C 507.833,101.5 499.167,101.5 490.5,101.5C 490.5,100.5 490.5,99.5 490.5,98.5 Z"/></g>
<g><path style="opacity:1" fill="#181818" d="M 566.5,102.5 C 569.93,102.107 573.096,102.773 576,104.5C 576.667,106.167 576.667,107.833 576,109.5C 573.147,112.052 570.647,114.885 568.5,118C 570.899,118.711 573.232,118.544 575.5,117.5C 576.429,118.689 576.762,120.022 576.5,121.5C 572.116,121.826 567.783,121.492 563.5,120.5C 565.771,116.726 568.604,113.393 572,110.5C 572.495,108.527 572.662,106.527 572.5,104.5C 569.692,104.693 567.025,105.36 564.5,106.5C 564.527,104.801 565.194,103.467 566.5,102.5 Z"/></g>
<g><path style="opacity:1" fill="#262626" d="M 142.5,102.5 C 151.167,102.5 159.833,102.5 168.5,102.5C 168.5,103.833 168.5,105.167 168.5,106.5C 159.833,106.5 151.167,106.5 142.5,106.5C 142.5,105.167 142.5,103.833 142.5,102.5 Z"/></g>
<g><path style="opacity:1" fill="#161616" d="M 353.5,102.5 C 360.981,100.494 364.147,103.161 363,110.5C 360.5,113 358,115.5 355.5,118C 358.453,118.892 361.119,118.392 363.5,116.5C 364.452,118.045 364.785,119.712 364.5,121.5C 360.116,121.826 355.783,121.492 351.5,120.5C 354.925,116.418 357.925,112.084 360.5,107.5C 360.5,105.5 359.5,104.5 357.5,104.5C 355.675,105.651 353.675,106.318 351.5,106.5C 351.527,104.801 352.194,103.467 353.5,102.5 Z"/></g>
<g><path style="opacity:1" fill="#151515" d="M 467.5,102.5 C 469.45,107.735 470.117,113.402 469.5,119.5C 470.978,119.238 472.311,119.571 473.5,120.5C 469.5,121.833 465.5,121.833 461.5,120.5C 462.991,119.756 464.491,119.09 466,118.5C 466.499,114.514 466.666,110.514 466.5,106.5C 464.669,107.052 463.003,107.052 461.5,106.5C 463.565,105.143 465.565,103.81 467.5,102.5 Z"/></g>
<g><path style="opacity:1" fill="#151515" d="M 63.5,106.5 C 65.7224,106.178 67.5557,106.845 69,108.5C 72.2455,105.488 74.9121,105.821 77,109.5C 79.1277,106.542 81.7944,105.876 85,107.5C 85.4689,110.944 84.9689,114.278 83.5,117.5C 84.3628,119.872 85.5295,119.872 87,117.5C 86.6098,121.287 84.6098,122.287 81,120.5C 80.2532,117.147 80.7532,113.98 82.5,111C 82.3865,109.72 81.7199,108.887 80.5,108.5C 76.3034,111.737 74.3034,116.07 74.5,121.5C 73.5,121.5 72.5,121.5 71.5,121.5C 71.9537,118.135 72.6203,114.802 73.5,111.5C 73.1667,110.5 72.8333,109.5 72.5,108.5C 67.8177,111.529 65.8177,115.862 66.5,121.5C 65.0222,121.762 63.6888,121.429 62.5,120.5C 64.4846,116.6 65.1512,112.6 64.5,108.5C 60.9801,110.813 60.6468,110.147 63.5,106.5 Z"/></g>
<g><path style="opacity:1" fill="#151515" d="M 95.5,106.5 C 98.3467,106.782 101.013,106.782 103.5,106.5C 104.341,110.189 104.007,113.856 102.5,117.5C 102.667,118.167 102.833,118.833 103,119.5C 103.965,117.74 105.132,117.406 106.5,118.5C 103.902,122.452 101.402,122.452 99,118.5C 96.8723,121.458 94.2056,122.124 91,120.5C 89.4543,114.794 90.9543,110.127 95.5,106.5 Z"/></g>
<g><path style="opacity:1" fill="#171717" d="M 111.5,106.5 C 114.841,105.843 116.841,107.176 117.5,110.5C 119.1,107.904 121.433,106.57 124.5,106.5C 124.5,107.5 124.5,108.5 124.5,109.5C 119.195,110.077 117.362,113.077 119,118.5C 120.147,119.458 121.147,119.125 122,117.5C 122.611,121.088 121.111,122.254 117.5,121C 116.789,119.745 115.956,118.579 115,117.5C 113.561,119.448 111.728,120.781 109.5,121.5C 108.068,121.267 107.568,120.6 108,119.5C 114.319,117.828 115.985,114.162 113,108.5C 109.243,110.906 108.743,110.239 111.5,106.5 Z"/></g>
<g><path style="opacity:1" fill="#ededed" d="M 96.5,108.5 C 97.8333,108.5 99.1667,108.5 100.5,108.5C 100.941,113.198 99.2738,116.864 95.5,119.5C 92.8423,115.721 93.1757,112.054 96.5,108.5 Z"/></g>
<g><path style="opacity:1" fill="#151515" d="M 944.5,109.5 C 946.833,109.5 949.167,109.5 951.5,109.5C 950.8,113.947 949.967,118.28 949,122.5C 951.849,118.447 955.182,117.78 959,120.5C 959.654,125.274 959.154,129.94 957.5,134.5C 957.833,135.167 958.167,135.833 958.5,136.5C 963.335,134.194 963.669,135.028 959.5,139C 955.098,140.569 953.098,139.069 953.5,134.5C 954.17,130.49 954.837,126.49 955.5,122.5C 951.83,122.327 949.33,123.993 948,127.5C 946.53,131.378 945.697,135.378 945.5,139.5C 944.167,139.5 942.833,139.5 941.5,139.5C 942.896,130.962 944.562,122.462 946.5,114C 945.926,112.393 945.26,110.893 944.5,109.5 Z"/></g>
<g><path style="opacity:1" fill="#121212" d="M 1043.5,111.5 C 1045.2,111.34 1046.87,111.506 1048.5,112C 1047.66,113.011 1047.33,114.178 1047.5,115.5C 1046.17,115.5 1044.83,115.5 1043.5,115.5C 1043.5,114.167 1043.5,112.833 1043.5,111.5 Z"/></g>
<g><path style="opacity:1" fill="#101010" d="M 934.5,116.5 C 933.596,117.209 933.263,118.209 933.5,119.5C 935.5,119.5 937.5,119.5 939.5,119.5C 937.721,121.344 935.388,122.01 932.5,121.5C 931.725,126.484 931.058,131.484 930.5,136.5C 932.827,136.753 934.827,136.086 936.5,134.5C 937.282,136.329 936.616,137.829 934.5,139C 931.653,139.944 929.153,139.444 927,137.5C 926.52,132.081 927.02,126.748 928.5,121.5C 927.325,121.719 926.325,121.386 925.5,120.5C 928.98,119.943 930.647,117.943 930.5,114.5C 932.483,114.157 933.817,114.824 934.5,116.5 Z"/></g>
<g><path style="opacity:1" fill="#999999" d="M 934.5,116.5 C 935.802,118.028 937.469,119.028 939.5,119.5C 937.5,119.5 935.5,119.5 933.5,119.5C 933.263,118.209 933.596,117.209 934.5,116.5 Z"/></g>
<g><path style="opacity:1" fill="#141414" d="M 908.5,119.5 C 919,117.166 922.833,121.166 920,131.5C 917.724,138.751 912.89,141.251 905.5,139C 902.572,135.743 901.738,131.909 903,127.5C 904.273,124.403 906.107,121.736 908.5,119.5 Z"/></g>
<g><path style="opacity:1" fill="#161616" d="M 974.5,118.5 C 981,117.499 983.5,120.165 982,126.5C 978.408,129.53 974.242,130.864 969.5,130.5C 968.753,136.067 971.087,137.9 976.5,136C 978.884,132.642 980.051,132.809 980,136.5C 969.312,142.808 964.645,139.808 966,127.5C 967.688,123.315 970.521,120.315 974.5,118.5 Z"/></g>
<g><path style="opacity:1" fill="#161616" d="M 988.5,118.5 C 991.808,117.974 993.974,119.307 995,122.5C 997.408,119.38 1000.57,118.047 1004.5,118.5C 1004.17,120.5 1003.83,122.5 1003.5,124.5C 1001.8,124.374 1000.3,123.707 999,122.5C 997.395,123.101 996.062,124.101 995,125.5C 992.579,129.851 991.412,134.517 991.5,139.5C 990.167,139.5 988.833,139.5 987.5,139.5C 988.073,134.106 989.073,128.773 990.5,123.5C 990.167,122.833 989.833,122.167 989.5,121.5C 988.186,122.313 987.019,123.313 986,124.5C 985.5,124 985,123.5 984.5,123C 986.041,121.629 987.375,120.129 988.5,118.5 Z"/></g>
<g><path style="opacity:1" fill="#111111" d="M 1005.5,120.5 C 1007.26,119.539 1009.26,119.205 1011.5,119.5C 1012,124.492 1012.5,129.492 1013,134.5C 1016.27,129.964 1018.44,124.964 1019.5,119.5C 1020.83,119.5 1022.17,119.5 1023.5,119.5C 1023.45,124.552 1023.95,129.552 1025,134.5C 1026.92,131.661 1028.59,128.661 1030,125.5C 1030.74,123.559 1030.58,121.726 1029.5,120C 1031.58,119.192 1033.58,119.359 1035.5,120.5C 1033.3,126.189 1030.47,131.523 1027,136.5C 1025.74,138.607 1023.9,139.607 1021.5,139.5C 1020.89,135.528 1020.39,131.528 1020,127.5C 1017.83,131.167 1015.67,134.833 1013.5,138.5C 1012.17,139.833 1010.83,139.833 1009.5,138.5C 1008.72,133.553 1008.22,128.553 1008,123.5C 1007.62,122.058 1006.79,121.058 1005.5,120.5 Z"/></g>
<g><path style="opacity:1" fill="#141414" d="M 1039.5,120.5 C 1041.61,119.532 1043.94,119.198 1046.5,119.5C 1045.23,124.257 1044.23,129.091 1043.5,134C 1043.83,134.833 1044.17,135.667 1044.5,136.5C 1049.34,134.194 1049.67,135.028 1045.5,139C 1043.56,139.743 1041.73,139.576 1040,138.5C 1039.29,133.391 1039.79,128.391 1041.5,123.5C 1041.55,121.962 1040.88,120.962 1039.5,120.5 Z"/></g>
<g><path style="opacity:1" fill="#181818" d="M 1058.5,118.5 C 1061.25,118.274 1063.92,118.607 1066.5,119.5C 1067.45,121.045 1067.79,122.712 1067.5,124.5C 1065.64,124.539 1064.31,123.706 1063.5,122C 1061.83,121.333 1060.17,121.333 1058.5,122C 1057.48,123.049 1057.32,124.216 1058,125.5C 1060.26,127.046 1062.42,128.712 1064.5,130.5C 1066.18,134.288 1065.18,137.121 1061.5,139C 1057.85,139.499 1054.18,139.665 1050.5,139.5C 1050.05,137.023 1050.72,135.023 1052.5,133.5C 1054.39,137.186 1057.22,138.186 1061,136.5C 1061.67,135.167 1061.67,133.833 1061,132.5C 1057.58,130.584 1055.08,127.918 1053.5,124.5C 1054.12,121.553 1055.79,119.553 1058.5,118.5 Z"/></g>
<g><path style="opacity:1" fill="#161616" d="M 1080.5,118.5 C 1087,117.499 1089.5,120.165 1088,126.5C 1084.41,129.53 1080.24,130.864 1075.5,130.5C 1074.75,136.067 1077.09,137.9 1082.5,136C 1084.88,132.642 1086.05,132.809 1086,136.5C 1075.31,142.808 1070.64,139.808 1072,127.5C 1073.69,123.315 1076.52,120.315 1080.5,118.5 Z"/></g>
<g><path style="opacity:1" fill="#f0f0f0" d="M 911.5,121.5 C 915.49,120.824 917.157,122.49 916.5,126.5C 916.378,129.698 915.545,132.698 914,135.5C 909.857,138.671 907.357,137.671 906.5,132.5C 906.852,128.136 908.519,124.469 911.5,121.5 Z"/></g>
<g><path style="opacity:1" fill="#efefef" d="M 974.5,121.5 C 975.833,121.5 977.167,121.5 978.5,121.5C 978.24,126.876 975.573,128.876 970.5,127.5C 971.467,125.21 972.8,123.21 974.5,121.5 Z"/></g>
<g><path style="opacity:1" fill="#efefef" d="M 1080.5,121.5 C 1081.83,121.5 1083.17,121.5 1084.5,121.5C 1084.24,126.876 1081.57,128.876 1076.5,127.5C 1077.47,125.21 1078.8,123.21 1080.5,121.5 Z"/></g>
<g><path style="opacity:1" fill="#212121" d="M 697.5,127.5 C 699.759,129.116 701.759,130.949 703.5,133C 701.688,134.812 699.855,136.645 698,138.5C 696.176,137.251 696.343,136.085 698.5,135C 685.838,134.5 673.171,134.333 660.5,134.5C 660.5,133.5 660.5,132.5 660.5,131.5C 673.171,131.667 685.838,131.5 698.5,131C 696.627,130.047 696.294,128.88 697.5,127.5 Z"/></g>
<g><path style="opacity:1" fill="#161616" d="M 801.5,134.5 C 799.474,133.993 797.141,132.993 794.5,131.5C 796.857,131.663 799.19,131.497 801.5,131C 799.343,129.915 799.176,128.749 801,127.5C 803.423,128.785 805.256,130.618 806.5,133C 804.688,134.812 802.855,136.645 801,138.5C 799.413,137.154 799.58,135.821 801.5,134.5 Z"/></g>
<g><path style="opacity:1" fill="#191919" d="M 651.5,131.5 C 652.833,131.5 654.167,131.5 655.5,131.5C 655.5,148.5 655.5,165.5 655.5,182.5C 654.167,182.5 652.833,182.5 651.5,182.5C 651.5,165.5 651.5,148.5 651.5,131.5 Z"/></g>
<g><path style="opacity:1" fill="#191919" d="M 810.5,131.5 C 811.833,131.5 813.167,131.5 814.5,131.5C 814.5,148.5 814.5,165.5 814.5,182.5C 813.167,182.5 811.833,182.5 810.5,182.5C 810.5,165.5 810.5,148.5 810.5,131.5 Z"/></g>
<g><path style="opacity:1" fill="#202020" d="M 786.5,131.5 C 783.109,133.125 779.442,134.125 775.5,134.5C 771.167,134.5 766.833,134.5 762.5,134.5C 762.5,133.5 762.5,132.5 762.5,131.5C 770.5,131.5 778.5,131.5 786.5,131.5 Z"/></g>
<g><path style="opacity:1" fill="#5d5d5d" d="M 786.5,131.5 C 786.833,131.5 787.167,131.5 787.5,131.5C 787.97,132.693 788.97,133.36 790.5,133.5C 792.03,133.36 793.03,132.693 793.5,131.5C 793.833,131.5 794.167,131.5 794.5,131.5C 797.141,132.993 799.474,133.993 801.5,134.5C 792.833,134.5 784.167,134.5 775.5,134.5C 779.442,134.125 783.109,133.125 786.5,131.5 Z"/></g>
<g><path style="opacity:1" fill="#121212" d="M 787.5,131.5 C 789.5,131.5 791.5,131.5 793.5,131.5C 793.03,132.693 792.03,133.36 790.5,133.5C 788.97,133.36 787.97,132.693 787.5,131.5 Z"/></g>
<g><path style="opacity:1" fill="#151515" d="M 829.5,134.5 C 830.833,134.5 832.167,134.5 833.5,134.5C 834.162,139.357 832.329,143.023 828,145.5C 827.308,144.975 826.808,144.308 826.5,143.5C 829.077,141.08 830.077,138.08 829.5,134.5 Z"/></g>
<g><path style="opacity:1" fill="#161616" d="M 665.5,140.5 C 672.2,140.17 678.866,140.503 685.5,141.5C 684.652,143.409 684.318,145.409 684.5,147.5C 683.5,147.5 682.5,147.5 681.5,147.5C 681.67,146.178 681.337,145.011 680.5,144C 677.518,143.502 674.518,143.335 671.5,143.5C 671.167,146.833 670.833,150.167 670.5,153.5C 673.837,153.323 676.837,152.323 679.5,150.5C 679.534,153.199 678.867,155.699 677.5,158C 675.95,156.991 674.117,156.158 672,155.5C 671.167,155.833 670.333,156.167 669.5,156.5C 668.51,160.105 667.844,163.772 667.5,167.5C 669.857,167.663 672.19,167.497 674.5,167C 676.355,165.145 678.188,163.312 680,161.5C 680.5,161.833 681,162.167 681.5,162.5C 680.833,164.5 680.167,166.5 679.5,168.5C 673.167,169.833 666.833,169.833 660.5,168.5C 661.522,167.646 662.355,166.646 663,165.5C 664.607,158.855 666.107,152.189 667.5,145.5C 667.014,143.696 666.347,142.029 665.5,140.5 Z"/></g>
<g><path style="opacity:1" fill="#161616" d="M 768.5,140.5 C 775.2,140.17 781.866,140.503 788.5,141.5C 787.652,143.409 787.318,145.409 787.5,147.5C 786.5,147.5 785.5,147.5 784.5,147.5C 784.67,146.178 784.337,145.011 783.5,144C 780.518,143.502 777.518,143.335 774.5,143.5C 774.167,146.833 773.833,150.167 773.5,153.5C 776.837,153.323 779.837,152.323 782.5,150.5C 782.534,153.199 781.867,155.699 780.5,158C 778.95,156.991 777.117,156.158 775,155.5C 774.167,155.833 773.333,156.167 772.5,156.5C 771.51,160.105 770.844,163.772 770.5,167.5C 772.857,167.663 775.19,167.497 777.5,167C 779.355,165.145 781.188,163.312 783,161.5C 783.5,161.833 784,162.167 784.5,162.5C 783.833,164.5 783.167,166.5 782.5,168.5C 776.167,169.833 769.833,169.833 763.5,168.5C 764.522,167.646 765.355,166.646 766,165.5C 767.607,158.855 769.107,152.189 770.5,145.5C 770.014,143.696 769.347,142.029 768.5,140.5 Z"/></g>
<g><path style="opacity:1" fill="#000000" d="M 714.5,155.5 C 723.167,155.5 731.833,155.5 740.5,155.5C 740.5,156.5 740.5,157.5 740.5,158.5C 731.833,158.5 723.167,158.5 714.5,158.5C 714.5,157.5 714.5,156.5 714.5,155.5 Z"/></g>
<g><path style="opacity:1" fill="#181818" d="M 791.5,160.5 C 794.93,160.107 798.096,160.773 801,162.5C 801.667,164.167 801.667,165.833 801,167.5C 798.147,170.052 795.647,172.885 793.5,176C 795.899,176.711 798.232,176.544 800.5,175.5C 801.429,176.689 801.762,178.022 801.5,179.5C 797.116,179.826 792.783,179.492 788.5,178.5C 790.771,174.726 793.604,171.393 797,168.5C 797.495,166.527 797.662,164.527 797.5,162.5C 794.692,162.693 792.025,163.36 789.5,164.5C 789.527,162.801 790.194,161.467 791.5,160.5 Z"/></g>
<g><path style="opacity:1" fill="#151515" d="M 692.5,160.5 C 694.45,165.735 695.117,171.402 694.5,177.5C 695.978,177.238 697.311,177.571 698.5,178.5C 694.5,179.833 690.5,179.833 686.5,178.5C 687.991,177.756 689.491,177.09 691,176.5C 691.499,172.514 691.666,168.514 691.5,164.5C 689.669,165.052 688.003,165.052 686.5,164.5C 688.565,163.143 690.565,161.81 692.5,160.5 Z"/></g>
</svg>
